<svg width="25" height="35" viewBox="0 0 25 35" fill="none" xmlns="http://www.w3.org/2000/svg">
<path fill-rule="evenodd" clip-rule="evenodd" d="M8.66669 2.5H10.2V1H8.66669V2.5Z" fill="#231F20" stroke="black"/>
<path fill-rule="evenodd" clip-rule="evenodd" d="M7.13336 2.5H8.66685V1H7.13336V2.5Z" fill="#231F20" stroke="black"/>
<path fill-rule="evenodd" clip-rule="evenodd" d="M13.2667 2.5H14.8V1H13.2667V2.5Z" fill="#231F20" stroke="black"/>
<path fill-rule="evenodd" clip-rule="evenodd" d="M10.2 2.5H11.7333V1H10.2V2.5Z" fill="#231F20" stroke="black"/>
<path fill-rule="evenodd" clip-rule="evenodd" d="M16.3333 2.5H17.8666V1H16.3333V2.5Z" fill="#231F20" stroke="black"/>
<path fill-rule="evenodd" clip-rule="evenodd" d="M14.8 2.5H16.3333V1H14.8V2.5Z" fill="#231F20" stroke="black"/>
<path fill-rule="evenodd" clip-rule="evenodd" d="M19.4 4H20.9334V2.5H19.4V4Z" fill="#231F20" stroke="black"/>
<path fill-rule="evenodd" clip-rule="evenodd" d="M17.8666 4H19.4V2.5H17.8666V4Z" fill="#231F20" stroke="black"/>
<path fill-rule="evenodd" clip-rule="evenodd" d="M5.59998 4H7.13331V2.5H5.59998V4Z" fill="#231F20" stroke="black"/>
<path fill-rule="evenodd" clip-rule="evenodd" d="M4.06665 4H5.59998V2.5H4.06665V4Z" fill="#231F20" stroke="black"/>
<path fill-rule="evenodd" clip-rule="evenodd" d="M22.4667 7H24V5.5H22.4667V7Z" fill="#231F20" stroke="black"/>
<path fill-rule="evenodd" clip-rule="evenodd" d="M1 7H2.53333V5.5H1V7Z" fill="#231F20" stroke="black"/>
<path fill-rule="evenodd" clip-rule="evenodd" d="M22.4667 8.5H24V7H22.4667V8.5Z" fill="#231F20" stroke="black"/>
<path fill-rule="evenodd" clip-rule="evenodd" d="M1 8.5H2.53333V7H1V8.5Z" fill="#231F20" stroke="black"/>
<path fill-rule="evenodd" clip-rule="evenodd" d="M22.4667 10H24V8.5H22.4667V10Z" fill="#231F20" stroke="black"/>
<path fill-rule="evenodd" clip-rule="evenodd" d="M1 10H2.53333V8.5H1V10Z" fill="#231F20" stroke="black"/>
<path fill-rule="evenodd" clip-rule="evenodd" d="M22.4667 11.5H24V10H22.4667V11.5Z" fill="#231F20" stroke="black"/>
<path fill-rule="evenodd" clip-rule="evenodd" d="M1 11.5H2.53333V10H1V11.5Z" fill="#231F20" stroke="black"/>
<path fill-rule="evenodd" clip-rule="evenodd" d="M22.4667 13H24V11.5H22.4667V13Z" fill="#231F20" stroke="black"/>
<path fill-rule="evenodd" clip-rule="evenodd" d="M1 13H2.53333V11.5H1V13Z" fill="#231F20" stroke="black"/>
<path fill-rule="evenodd" clip-rule="evenodd" d="M22.4667 14.5001H24V13H22.4667V14.5001Z" fill="#231F20" stroke="black"/>
<path fill-rule="evenodd" clip-rule="evenodd" d="M1 14.5001H2.53333V13H1V14.5001Z" fill="#231F20" stroke="black"/>
<path fill-rule="evenodd" clip-rule="evenodd" d="M22.4667 16H24V14.5H22.4667V16Z" fill="#231F20" stroke="black"/>
<path fill-rule="evenodd" clip-rule="evenodd" d="M1 16H2.53333V14.5H1V16Z" fill="#231F20" stroke="black"/>
<path fill-rule="evenodd" clip-rule="evenodd" d="M22.4667 17.5H24V16H22.4667V17.5Z" fill="#231F20" stroke="black"/>
<path fill-rule="evenodd" clip-rule="evenodd" d="M1 17.5H2.53333V16H1V17.5Z" fill="#231F20" stroke="black"/>
<path fill-rule="evenodd" clip-rule="evenodd" d="M22.4667 19H24V17.5H22.4667V19Z" fill="#231F20" stroke="black"/>
<path fill-rule="evenodd" clip-rule="evenodd" d="M1 19H2.53333V17.5H1V19Z" fill="#231F20" stroke="black"/>
<path fill-rule="evenodd" clip-rule="evenodd" d="M22.4667 20.5H24V19H22.4667V20.5Z" fill="#231F20" stroke="black"/>
<path fill-rule="evenodd" clip-rule="evenodd" d="M1 20.5H2.53333V19H1V20.5Z" fill="#231F20" stroke="black"/>
<path fill-rule="evenodd" clip-rule="evenodd" d="M22.4667 22H24V20.5H22.4667V22Z" fill="#231F20" stroke="black"/>
<path fill-rule="evenodd" clip-rule="evenodd" d="M1 22H2.53333V20.5H1V22Z" fill="#231F20" stroke="black"/>
<path fill-rule="evenodd" clip-rule="evenodd" d="M22.4667 23.5H24V22H22.4667V23.5Z" fill="#231F20" stroke="black"/>
<path fill-rule="evenodd" clip-rule="evenodd" d="M1 23.5H2.53333V22H1V23.5Z" fill="#231F20" stroke="black"/>
<path fill-rule="evenodd" clip-rule="evenodd" d="M22.4667 25H24V23.5H22.4667V25Z" fill="#231F20" stroke="black"/>
<path fill-rule="evenodd" clip-rule="evenodd" d="M1 25H2.53333V23.5H1V25Z" fill="#231F20" stroke="black"/>
<path fill-rule="evenodd" clip-rule="evenodd" d="M22.4667 26.5H24V25H22.4667V26.5Z" fill="#231F20" stroke="black"/>
<path fill-rule="evenodd" clip-rule="evenodd" d="M1 26.5H2.53333V25H1V26.5Z" fill="#231F20" stroke="black"/>
<path fill-rule="evenodd" clip-rule="evenodd" d="M22.4667 28.0001H24V26.5H22.4667V28.0001Z" fill="#231F20" stroke="black"/>
<path fill-rule="evenodd" clip-rule="evenodd" d="M1 28.0001H2.53333V26.5H1V28.0001Z" fill="#231F20" stroke="black"/>
<path fill-rule="evenodd" clip-rule="evenodd" d="M22.4667 29.5H24V28H22.4667V29.5Z" fill="#231F20" stroke="black"/>
<path fill-rule="evenodd" clip-rule="evenodd" d="M1 29.5H2.53333V28H1V29.5Z" fill="#231F20" stroke="black"/>
<path fill-rule="evenodd" clip-rule="evenodd" d="M20.9333 5.5H22.4667V4H20.9333V5.5Z" fill="#231F20" stroke="black"/>
<path fill-rule="evenodd" clip-rule="evenodd" d="M2.53333 5.5H4.06666V4H2.53333V5.5Z" fill="#231F20" stroke="black"/>
<path fill-rule="evenodd" clip-rule="evenodd" d="M8.66669 34H10.2V32.5H8.66669V34Z" fill="#231F20" stroke="black"/>
<path fill-rule="evenodd" clip-rule="evenodd" d="M7.13336 34H8.66685V32.5H7.13336V34Z" fill="#231F20" stroke="black"/>
<path fill-rule="evenodd" clip-rule="evenodd" d="M13.2667 34H14.8V32.5H13.2667V34Z" fill="#231F20" stroke="black"/>
<path fill-rule="evenodd" clip-rule="evenodd" d="M10.2 34H11.7333V32.5H10.2V34Z" fill="#231F20" stroke="black"/>
<path fill-rule="evenodd" clip-rule="evenodd" d="M16.3333 34H17.8666V32.5H16.3333V34Z" fill="#231F20" stroke="black"/>
<path fill-rule="evenodd" clip-rule="evenodd" d="M14.8 34H16.3333V32.5H14.8V34Z" fill="#231F20" stroke="black"/>
<path fill-rule="evenodd" clip-rule="evenodd" d="M19.4 32.5H20.9334V31H19.4V32.5Z" fill="#231F20" stroke="black"/>
<path fill-rule="evenodd" clip-rule="evenodd" d="M17.8666 32.5H19.4V31H17.8666V32.5Z" fill="#231F20" stroke="black"/>
<path fill-rule="evenodd" clip-rule="evenodd" d="M5.59998 32.5H7.13331V31H5.59998V32.5Z" fill="#231F20" stroke="black"/>
<path fill-rule="evenodd" clip-rule="evenodd" d="M4.06665 32.5H5.59998V31H4.06665V32.5Z" fill="#231F20" stroke="black"/>
<path fill-rule="evenodd" clip-rule="evenodd" d="M8.66669 19H10.2V17.5H8.66669V19Z" fill="#231F20" stroke="black"/>
<path fill-rule="evenodd" clip-rule="evenodd" d="M7.13336 19H8.6667V17.5H7.13336V19Z" fill="#231F20" stroke="black"/>
<path fill-rule="evenodd" clip-rule="evenodd" d="M13.2667 19H14.8V17.5H13.2667V19Z" fill="#231F20" stroke="black"/>
<path fill-rule="evenodd" clip-rule="evenodd" d="M10.2 19H11.7333V17.5H10.2V19Z" fill="#231F20" stroke="black"/>
<path fill-rule="evenodd" clip-rule="evenodd" d="M11.7333 2.5H13.2667V1H11.7333V2.5Z" fill="#231F20" stroke="black"/>
<path fill-rule="evenodd" clip-rule="evenodd" d="M11.7333 4H13.2667V2.5H11.7333V4Z" fill="#231F20" stroke="black"/>
<path fill-rule="evenodd" clip-rule="evenodd" d="M11.7333 5.5H13.2667V4H11.7333V5.5Z" fill="#231F20" stroke="black"/>
<path fill-rule="evenodd" clip-rule="evenodd" d="M13.2667 7H14.8V5.5H13.2667V7Z" fill="#231F20" stroke="black"/>
<path fill-rule="evenodd" clip-rule="evenodd" d="M13.2667 8.5H14.8V7H13.2667V8.5Z" fill="#231F20" stroke="black"/>
<path fill-rule="evenodd" clip-rule="evenodd" d="M13.2667 10H14.8V8.5H13.2667V10Z" fill="#231F20" stroke="black"/>
<path fill-rule="evenodd" clip-rule="evenodd" d="M13.2667 11.5H14.8V10H13.2667V11.5Z" fill="#231F20" stroke="black"/>
<path fill-rule="evenodd" clip-rule="evenodd" d="M10.2 7H11.7333V5.5H10.2V7Z" fill="#231F20" stroke="black"/>
<path fill-rule="evenodd" clip-rule="evenodd" d="M10.2 8.5H11.7333V7H10.2V8.5Z" fill="#231F20" stroke="black"/>
<path fill-rule="evenodd" clip-rule="evenodd" d="M10.2 10H11.7333V8.5H10.2V10Z" fill="#231F20" stroke="black"/>
<path fill-rule="evenodd" clip-rule="evenodd" d="M10.2 11.5H11.7333V10H10.2V11.5Z" fill="#231F20" stroke="black"/>
<path fill-rule="evenodd" clip-rule="evenodd" d="M10.2 13H11.7333V11.5H10.2V13Z" fill="#231F20" stroke="black"/>
<path fill-rule="evenodd" clip-rule="evenodd" d="M13.2667 13H14.8V11.5H13.2667V13Z" fill="#231F20" stroke="black"/>
<path fill-rule="evenodd" clip-rule="evenodd" d="M11.7333 14.5H13.2667V13H11.7333V14.5Z" fill="#231F20" stroke="black"/>
<path fill-rule="evenodd" clip-rule="evenodd" d="M11.7333 16H13.2667V14.5H11.7333V16Z" fill="#231F20" stroke="black"/>
<path fill-rule="evenodd" clip-rule="evenodd" d="M11.7333 17.5H13.2667V16H11.7333V17.5Z" fill="#231F20" stroke="black"/>
<path fill-rule="evenodd" clip-rule="evenodd" d="M11.7333 34H13.2667V32.5H11.7333V34Z" fill="#231F20" stroke="black"/>
<path fill-rule="evenodd" clip-rule="evenodd" d="M11.7333 19H13.2667V17.5H11.7333V19Z" fill="#231F20" stroke="black"/>
<path fill-rule="evenodd" clip-rule="evenodd" d="M16.3333 19H17.8666V17.5H16.3333V19Z" fill="#231F20" stroke="black"/>
<path fill-rule="evenodd" clip-rule="evenodd" d="M14.8 19H16.3333V17.5H14.8V19Z" fill="#231F20" stroke="black"/>
<path fill-rule="evenodd" clip-rule="evenodd" d="M19.4 17.5H20.9334V16H19.4V17.5Z" fill="#231F20" stroke="black"/>
<path fill-rule="evenodd" clip-rule="evenodd" d="M20.9333 17.5H22.4667V16H20.9333V17.5Z" fill="#231F20" stroke="black"/>
<path fill-rule="evenodd" clip-rule="evenodd" d="M17.8666 17.5H19.4V16H17.8666V17.5Z" fill="#231F20" stroke="black"/>
<path fill-rule="evenodd" clip-rule="evenodd" d="M5.59998 17.5H7.13331V16H5.59998V17.5Z" fill="#231F20" stroke="black"/>
<path fill-rule="evenodd" clip-rule="evenodd" d="M4.06665 17.5H5.59998V16H4.06665V17.5Z" fill="#231F20" stroke="black"/>
<path fill-rule="evenodd" clip-rule="evenodd" d="M2.53333 17.5H4.06666V16H2.53333V17.5Z" fill="#231F20" stroke="black"/>
<path fill-rule="evenodd" clip-rule="evenodd" d="M20.9333 31H22.4667V29.5H20.9333V31Z" fill="#231F20" stroke="black"/>
<path fill-rule="evenodd" clip-rule="evenodd" d="M2.53333 31H4.06666V29.5H2.53333V31Z" fill="#231F20" stroke="black"/>
<rect x="10" y="5" width="5" height="9" fill="#B100FF"/>
</svg>
