<svg width="95" height="91" viewBox="0 0 95 91" fill="none" xmlns="http://www.w3.org/2000/svg">
<path fill-rule="evenodd" clip-rule="evenodd" d="M4.08602 8.0293H0V90.9999H3.06451H4.08602H95V87.4313H91.9355V19.6273V16.0587H75.5914V19.6273V87.4313H69.4624V33.0097V29.4411H53.1183V33.0097V87.4313H48.0108V41.9313V38.3626H31.6667L31.6667 41.9313V87.4313H25.5376V47.2842V43.7156H9.19355V47.2842V87.4313H4.08602V8.0293ZM79.6774 19.6273V87.4313H87.8495V19.6273H79.6774ZM57.2043 33.0097H65.3763V87.4313H57.2043V33.0097ZM35.7527 41.9313V87.4313H43.9247V41.9313H35.7527ZM13.2796 47.2842H21.4516V87.4313H13.2796V47.2842Z" fill="black"/>
<path fill-rule="evenodd" clip-rule="evenodd" d="M78.1944 2.57713L78.239 2.4083L66.2951 0L65.376 3.47716L73.388 5.09265L71.505 12.2158L75.4863 13.0186L78.2438 2.58708L78.1944 2.57713ZM71.3893 6.14369L67.408 5.34092L66.4889 8.81808L62.5076 8.01532L61.5884 11.4925L57.6071 10.6897L56.688 14.1669L52.7067 13.3641L51.7875 16.8413L47.8062 16.0385L46.8871 19.5157L42.9058 18.7129L41.9866 22.1901L38.0053 21.3873L37.0862 24.8645L33.1049 24.0617L32.1857 27.5389L28.2044 26.7361L27.2853 30.2133L31.2666 31.016L32.1857 27.5389L36.167 28.3416L37.0862 24.8645L41.0675 25.6672L41.9866 22.1901L45.9679 22.9928L46.8871 19.5157L50.8684 20.3184L51.7875 16.8413L55.7688 17.644L56.688 14.1669L60.6693 14.9696L61.5884 11.4925L65.5697 12.2952L66.4889 8.81808L70.4702 9.62085L71.3893 6.14369ZM23.304 29.4105L27.2853 30.2133L26.3661 33.6904L22.3848 32.8877L23.304 29.4105ZM22.3848 32.8877L21.4657 36.3648L17.4844 35.5621L18.4035 32.0849L22.3848 32.8877Z" fill="black"/>
</svg>
