<svg width="91" height="91" viewBox="0 0 91 91" fill="none" xmlns="http://www.w3.org/2000/svg">
<path fill-rule="evenodd" clip-rule="evenodd" d="M32 0H58.717V1.10976H63.1698V3.32927H67.6226V6.65854H72.0755L72.0755 9.9878H76.5283V14.4268L72.0755 14.4268L72.0755 11.0976H67.6226V7.76829H63.1698V5.54878H58.717V4.43902H32V0ZM80.9811 18.8659H76.5283V14.4268H80.9811V18.8659ZM80.9811 72.1341V67.6951H83.2075V63.2561L85.434 63.2561V58.8171L86.5472 58.8171V32.1829H85.434V27.7439H83.2075V23.3049H80.9811V18.8659H85.434V23.3049H87.6604V27.7439H89.8868V32.1829H91V58.8171L89.8868 58.8171V63.2561L87.6604 63.2561V67.6951H85.434V72.1341H80.9811ZM76.5283 76.5732V72.1341H80.9811V76.5732H76.5283ZM58.717 89.8902H63.1698V87.6707H67.6226V84.3415H72.0755L72.0755 81.0122H76.5283V76.5732H72.0755L72.0755 79.9024H67.6226V83.2317H63.1698V85.4512H58.717V86.561H32V91H58.717V89.8902Z" fill="black"/>
<path fill-rule="evenodd" clip-rule="evenodd" d="M59 91H32.283V89.8902H27.8302V87.6707H23.3774V84.3415H18.9245L18.9245 81.0122H14.4717V76.5732L18.9245 76.5732L18.9245 79.9024H23.3774V83.2317H27.8302V85.4512H32.283V86.561H59V91ZM10.0189 72.1341H14.4717V76.5732H10.0189V72.1341ZM10.0189 18.8659V23.3049H7.79245V27.7439L5.56604 27.7439V32.1829L4.45283 32.1829V58.8171H5.56604L5.56604 63.2561H7.79245V67.6951H10.0189V72.1341H5.56604V67.6951H3.33962V63.2561H1.1132L1.1132 58.8171H0V32.1829L1.1132 32.1829V27.7439L3.33962 27.7439V23.3049H5.56604V18.8659H10.0189ZM14.4717 14.4268V18.8659H10.0189V14.4268H14.4717ZM32.283 1.10976H27.8302V3.32927H23.3774L23.3774 6.65854H18.9245L18.9245 9.9878H14.4717V14.4268H18.9245L18.9245 11.0976H23.3774V7.7683H27.8302V5.54878H32.283V4.43903H59L59 0H32.283V1.10976Z" fill="black"/>
<path fill-rule="evenodd" clip-rule="evenodd" d="M44 66V70H48V66H54V62H58V50H54V46H50V44H48V28H54V32H58V28H54V24H48V20H44V24H38V28H34V40H38V44H42V46H44V62H38V58H34V62H38V66H44ZM38 40H42V42H44V28H38V40ZM50 48V50H54V62H48V48H50Z" fill="black"/>
</svg>
