<svg width="95" height="91" viewBox="0 0 95 91" fill="none" xmlns="http://www.w3.org/2000/svg">
<path fill-rule="evenodd" clip-rule="evenodd" d="M36 0H62.717V1.10976H67.1698V3.32927H71.6226V6.65854H76.0755L76.0755 9.9878H80.5283V14.4268L76.0755 14.4268L76.0755 11.0976H71.6226V7.76829H67.1698V5.54878H62.717V4.43902H36V0ZM84.9811 18.8659H80.5283V14.4268H84.9811V18.8659ZM84.9811 72.1341V67.6951H87.2075V63.2561L89.434 63.2561V58.8171L90.5472 58.8171V32.1829H89.434V27.7439H87.2075V23.3049H84.9811V18.8659H89.434V23.3049H91.6604V27.7439H93.8868V32.1829H95V58.8171L93.8868 58.8171V63.2561L91.6604 63.2561V67.6951H89.434V72.1341H84.9811ZM80.5283 76.5732V72.1341H84.9811V76.5732H80.5283ZM62.717 89.8902H67.1698V87.6707H71.6226V84.3415H76.0755L76.0755 81.0122H80.5283V76.5732H76.0755L76.0755 79.9024H71.6226V83.2317H67.1698V85.4512H62.717V86.561H36V91H62.717V89.8902Z" fill="black"/>
<path fill-rule="evenodd" clip-rule="evenodd" d="M51.48 12H47V48H48.12H51.48H75V43.5H51.48V12Z" fill="black"/>
<rect x="6" y="36" width="29" height="4" fill="black"/>
<rect y="48" width="35" height="4" fill="black"/>
<rect x="10" y="60" width="25" height="4" fill="black"/>
<rect x="13" y="24" width="22" height="4" fill="black"/>
<rect x="22" y="12" width="13" height="4" fill="black"/>
<rect x="20" y="72" width="15" height="4" fill="black"/>
</svg>
